<?xml version="1.0" standalone="no"?>
<!DOCTYPE svg PUBLIC "-//W3C//DTD SVG 1.1//EN" "http://www.w3.org/Graphics/SVG/1.1/DTD/svg11.dtd" >
<svg xmlns="http://www.w3.org/2000/svg">
<metadata></metadata>
<defs>
<font id="engschrift_din_dregular" horiz-adv-x="882" >
<font-face units-per-em="2048" ascent="1366" descent="-682" />
<missing-glyph horiz-adv-x="490" />
<glyph unicode="&#xfb01;" horiz-adv-x="969" d="M32 983v187h116v162q0 72 21.5 126t69.5 99.5t99 63.5t136 18h82v-216h-87q-44 0 -65 -22t-21 -69v-162h173v-187h-173v-983h-235v983h-116zM636 0v1170h234v-1170h-234zM636 1411v228h234v-228h-234z" />
<glyph unicode="&#xfb02;" horiz-adv-x="1002" d="M32 983v187h116v162q0 72 21.5 126t69.5 99.5t99 63.5t136 18h82v-216h-87q-44 0 -65 -22t-21 -69v-162h173v-187h-173v-983h-235v983h-116zM636 295v1344h234v-1304q0 -69 18.5 -90.5t79.5 -21.5h17v-223h-51q-158 0 -240 101q-34 41 -46 81t-12 113z" />
<glyph horiz-adv-x="0" />
<glyph horiz-adv-x="682" />
<glyph unicode=" "  horiz-adv-x="490" />
<glyph unicode="&#x09;" horiz-adv-x="490" />
<glyph unicode="&#xa0;" horiz-adv-x="490" />
<glyph unicode="!" horiz-adv-x="453" d="M82 1639h289l-88 -1229h-114zM108 0v234h234v-234h-234z" />
<glyph unicode="&#x22;" horiz-adv-x="678" d="M49 1639h234l-49 -656h-136zM396 1639h233l-49 -656h-135z" />
<glyph unicode="#" horiz-adv-x="1506" d="M82 678l43 131h367l64 188h-366l44 136h366l115 342h169l-115 -342h180l115 342h170l-116 -342h308l-47 -136h-305l-64 -188h305l-44 -131h-305l-128 -380h-172l131 380h-180l-127 -380h-171l129 380h-366zM661 809h179l62 188h-177z" />
<glyph unicode="$" d="M37 408v59h235v-59q0 -92 43.5 -141t124.5 -49q46 0 85 20.5t62 54.5q13 23 18 47t5 70v113q0 36 -2 57.5t-11.5 43t-22 34t-41.5 29.5t-61 30.5t-89 34.5q-108 41 -168 83t-102 106q-34 53 -46.5 101.5t-12.5 127.5v73q0 135 67.5 234t192.5 153v157h234v-145 q139 -41 216.5 -147t77.5 -252v-73h-232v73q0 81 -44.5 129.5t-117.5 48.5q-72 0 -115 -48.5t-43 -129.5v-73q0 -32 2.5 -52t11 -39t20 -31.5t36 -27t53.5 -27t77 -29.5q189 -71 270.5 -168.5t81.5 -254.5v-133q0 -118 -32.5 -194t-111.5 -141q-65 -55 -150 -75v-155h-234 v162q-56 21 -87.5 39.5t-64.5 51.5q-65 63 -95 137.5t-30 174.5z" />
<glyph unicode="%" horiz-adv-x="866" d="M82 0l554 1639h148l-548 -1639h-154zM82 1346v124q0 77 51 130.5t125 53.5t125 -53.5t51 -130.5v-124q0 -81 -46.5 -127.5t-127.5 -46.5q-78 0 -128 49t-50 125zM199 1362q0 -37 14 -54.5t45 -17.5t45 17.5t14 54.5v110q0 30 -15.5 47t-43.5 17t-43.5 -17.5t-15.5 -48.5 v-108zM432 160v110q0 77 52 131t125.5 54t125 -54t51.5 -131v-110q0 -57 -19 -94q-24 -37 -67 -58.5t-90 -21.5q-76 0 -127 49t-51 125zM551 160q0 -38 13.5 -54.5t45.5 -16.5q58 0 58 71v110q0 32 -15.5 49.5t-43 17.5t-43 -17.5t-15.5 -49.5v-110z" />
<glyph unicode="&#x26;" horiz-adv-x="1058" d="M98 389v51q0 95 31 166.5t99 130.5l-52 72q-56 78 -56 188q0 95 46.5 174.5t127 126t175.5 46.5q93 0 173 -45.5t127 -123t47 -167.5q0 -104 -57 -185.5t-166 -132.5l-42 -19l167 -241v111h234v-101q0 -77 -15.5 -135t-54.5 -123l128 -182h-280l-24 35q-95 -59 -212 -59 q-86 0 -168 39.5t-139 109.5q-50 61 -69.5 118.5t-19.5 145.5zM337 389q0 -63 11.5 -95.5t45.5 -61.5q48 -35 105 -35q34 0 81 19l-221 325q-13 -25 -17.5 -44.5t-4.5 -56.5v-51zM349 1008q0 -41 29 -84l52 -76l76 36q81 41 81 119q0 57 -33 93.5t-84.5 36.5t-86 -36 t-34.5 -89z" />
<glyph unicode="'" horiz-adv-x="331" d="M49 1639h234l-49 -656h-136z" />
<glyph unicode="(" horiz-adv-x="570" d="M131 838q0 241 66.5 474.5t193.5 444.5h78q-105 -413 -105 -901q0 -244 33 -499.5t93 -471.5h-82q-134 200 -205.5 446.5t-71.5 506.5z" />
<glyph unicode=")" horiz-adv-x="570" d="M82 -115q59 211 91.5 468t32.5 503q0 232 -28 466.5t-80 434.5h82q260 -430 260 -919q0 -259 -71.5 -505t-206.5 -448h-80z" />
<glyph unicode="*" horiz-adv-x="680" d="M66 1396l37 105l183 -54v192h112v-192l182 54l37 -105l-169 -62l103 -147l-103 -69l-99 160l-103 -160l-101 69l101 147z" />
<glyph unicode="+" horiz-adv-x="798" d="M49 528v234h234v233h233v-233h234v-234h-234v-233h-233v233h-234z" />
<glyph unicode="," horiz-adv-x="331" d="M49 -174v408h234v-234z" />
<glyph unicode="-" horiz-adv-x="734" d="M17 528v234h701v-234h-701z" />
<glyph unicode="." horiz-adv-x="331" d="M49 0v234h234v-234h-234z" />
<glyph unicode="/" horiz-adv-x="510" d="M17 0l318 1639h162l-317 -1639h-163z" />
<glyph unicode="0" d="M91 361v927q0 92 26 156.5t87 119.5q101 90 239 90q93 0 175 -46.5t130 -125.5q25 -43 34 -84t9 -110v-927q0 -83 -15.5 -134.5t-55.5 -104.5q-49 -64 -123 -100t-152 -36q-97 0 -178.5 50t-128.5 136t-47 189zM324 361q0 -66 31 -103t88 -37q38 0 73 27q25 21 33.5 44.5 t8.5 68.5v927q0 63 -31.5 99t-86.5 36q-51 0 -83.5 -37.5t-32.5 -97.5v-927z" />
<glyph unicode="1" d="M150 1219v249l233 171h234v-1639h-234v1393z" />
<glyph unicode="2" d="M89 1170v118q3 65 12.5 103.5t31.5 78.5q46 85 129 134.5t181 49.5q95 0 175.5 -46.5t126.5 -127t46 -176.5v-151q0 -37 -16.5 -95.5t-40.5 -103.5l-368 -720h425v-234h-697v216l434 846q17 37 22.5 59t5.5 61v122q0 50 -34 84.5t-82 34.5q-29 0 -56.5 -15t-41.5 -39 q-13 -18 -15.5 -30.5t-2.5 -50.5v-118h-235z" />
<glyph unicode="3" d="M79 376v96h233v-76q0 -72 10.5 -101t43.5 -51q33 -21 68 -21q55 0 84.5 39.5t29.5 113.5v255q0 63 -39 91q-24 21 -41.5 25.5t-69.5 4.5h-42v204h42q49 0 69.5 5.5t43.5 23.5q21 21 29 44t8 64v197q0 62 -31 97.5t-85 35.5q-28 0 -56.5 -13.5t-44.5 -35.5 q-19 -26 -19 -84v-120h-233v120q0 157 99 260.5t252 103.5q152 0 250.5 -102.5t98.5 -261.5v-192q0 -88 -30.5 -142t-106.5 -100q83 -57 110 -108t27 -150v-222q0 -84 -8.5 -122t-38.5 -90q-46 -82 -127.5 -130t-172.5 -48q-79 0 -152.5 35t-124.5 97q-41 51 -58.5 110.5 t-17.5 147.5z" />
<glyph unicode="4" d="M32 251v218l339 1170h248l-351 -1170h234v467h232v-467h114v-218h-114v-251h-232v251h-470z" />
<glyph unicode="5" d="M91 368v42h235v-42q0 -36 3.5 -54t12.5 -34q15 -27 42.5 -43t58.5 -16q30 0 56 13.5t40 37.5q12 16 15.5 38.5t3.5 75.5v320q0 53 -10 78.5t-42 45.5q-32 21 -66 21q-40 0 -69.5 -22.5t-44.5 -64.5h-206v875h671v-216h-465v-440q92 74 190 74q50 0 100.5 -21t89.5 -58 q45 -42 65 -98t20 -141v-371q0 -94 -14.5 -144.5t-56.5 -101.5q-49 -64 -124 -100t-153 -36q-83 0 -164 42t-127 110q-33 47 -47 100.5t-14 129.5z" />
<glyph unicode="6" d="M89 364v258q0 68 4 91.5t32 95.5l307 830h266l-266 -687q56 19 96 19q56 0 109.5 -24.5t92.5 -66.5q35 -39 48 -82t13 -120v-314q0 -101 -23.5 -160.5t-84.5 -119.5q-50 -46 -113.5 -72t-129.5 -26q-90 0 -171 44.5t-129 121.5q-29 48 -40 93.5t-11 118.5zM324 364 q0 -67 32 -104t89 -37q44 0 81 33q20 20 26 40t6 68v258q0 68 -31 105t-87 37q-36 0 -72 -27q-27 -23 -35.5 -44.5t-8.5 -70.5v-258z" />
<glyph unicode="7" d="M98 1229v410h701v-213l-384 -1426h-248l398 1421h-260v-192h-207z" />
<glyph unicode="8" d="M91 366v286q0 128 118 216q-67 49 -92.5 101.5t-25.5 139.5v223q0 82 49 156.5t130 120t170 45.5q96 0 176.5 -47t127.5 -128t47 -177v-209q0 -74 -28.5 -128.5t-89.5 -96.5q63 -44 90.5 -98.5t27.5 -133.5v-296q0 -97 -46 -178.5t-125.5 -128.5t-174.5 -47t-179.5 49 t-129.5 132q-26 45 -35.5 87.5t-9.5 111.5zM322 366q0 -145 118 -145q27 0 52 12t41 32q13 19 18 39t5 62v286q0 59 -30.5 91.5t-85.5 32.5q-51 0 -84.5 -35t-33.5 -89v-286zM322 1093q0 -66 31.5 -102.5t86.5 -36.5q57 0 86.5 35.5t29.5 103.5v209q0 53 -33 87t-83 34 q-51 0 -84.5 -34.5t-33.5 -86.5v-209z" />
<glyph unicode="9" d="M91 985v335q0 41 19 95t50 97q47 68 121 105t159 37q98 0 178.5 -48.5t126.5 -132.5t46 -185v-268q0 -58 -6.5 -91.5t-32.5 -100.5l-309 -828h-269l276 690q-56 -14 -98 -14q-60 0 -113.5 26t-90.5 72q-35 44 -46 84.5t-11 126.5zM324 1020q0 -65 33 -102.5t88 -37.5 q42 0 78 32q23 23 29 41.5t6 66.5v268q0 63 -31.5 99t-86.5 36q-51 0 -83.5 -37.5t-32.5 -97.5v-268z" />
<glyph unicode=":" horiz-adv-x="331" d="M49 211v234h234v-234h-234zM49 732v234h234v-234h-234z" />
<glyph unicode=";" horiz-adv-x="331" d="M49 410v234h234v-234h-234zM52 -174v408h234v-234z" />
<glyph unicode="&#x3c;" horiz-adv-x="1228" d="M82 757v130l1063 489v-150l-901 -405l901 -406v-147z" />
<glyph unicode="=" horiz-adv-x="864" d="M82 361v234h699v-234h-699zM82 730v234h699v-234h-699z" />
<glyph unicode="&#x3e;" horiz-adv-x="1228" d="M84 268v150l901 405l-901 406v147l1063 -489v-130z" />
<glyph unicode="?" horiz-adv-x="778" d="M32 1170v110q0 161 102 267.5t255 106.5q91 0 169.5 -46.5t125 -126t46.5 -171.5v-140q0 -123 -57 -221l-120 -212q-40 -67 -48 -94.5t-8 -101.5v-131h-237v131q0 102 15 158t60 131l122 200q24 40 32 70t8 82v128q0 48 -33.5 79.5t-83.5 31.5q-115 0 -115 -141v-110 h-233zM260 0v234h237v-234h-237z" />
<glyph unicode="@" horiz-adv-x="1744" d="M98 788q0 171 64.5 324t173.5 263.5t261.5 175t321.5 64.5q152 0 287 -52t231.5 -141.5t152.5 -214t56 -264.5q0 -284 -208 -456q-72 -61 -151 -94.5t-149 -33.5q-67 0 -104.5 32.5t-60.5 110.5q-66 -74 -129 -106t-138 -32q-109 0 -177.5 80.5t-68.5 207.5q0 108 39 215 t102.5 187t147.5 130t170 50q157 0 223 -162l45 124h131l-214 -544q-23 -63 -23 -106q0 -35 24.5 -57t62.5 -22q49 0 105 29t106 79q145 145 145 359q0 117 -46 221.5t-125 179.5t-190 118t-237 43q-143 0 -271 -55t-220 -149t-145.5 -226t-53.5 -280q0 -143 52.5 -271 t142.5 -220t214.5 -145.5t264.5 -53.5q179 0 339.5 88.5t239.5 230.5l123 -7q-38 -83 -80.5 -137.5t-113.5 -108.5q-110 -88 -242 -134.5t-271 -46.5q-166 0 -315.5 63.5t-257 171t-171 257t-63.5 315.5zM587 634q0 -78 37.5 -122.5t102.5 -44.5q88 0 156.5 62.5 t108.5 178.5l52 150q28 88 28 127q0 61 -42 103t-101 42q-61 0 -123.5 -43.5t-110.5 -112.5t-78 -160t-30 -180z" />
<glyph unicode="A" horiz-adv-x="936" d="M0 0l366 1639h204l366 -1639h-251l-66 352h-305l-66 -352h-248zM356 570h221l-110 598z" />
<glyph unicode="B" horiz-adv-x="952" d="M131 0v1639h383q68 0 142 -32t125 -83q106 -106 106 -268v-128q0 -87 -43 -156t-122 -109q87 -51 126 -117t39 -159v-189q0 -174 -111 -286t-284 -112h-361zM361 234h136q75 0 123 46t48 118v189q0 79 -47 126t-129 47h-131v-526zM361 966h141q79 0 122.5 49.5 t43.5 137.5v103q0 74 -48 119.5t-126 45.5h-133v-455z" />
<glyph unicode="C" d="M91 410v846q0 99 31 170.5t99 131.5q51 45 116.5 70.5t134.5 25.5q105 0 192 -52t137 -143.5t50 -202.5v-86h-234v86q0 76 -38.5 119t-106.5 43q-67 0 -106.5 -44t-39.5 -118v-846q0 -74 6 -97t34 -50q44 -45 103 -45q38 0 74 20t57 52q11 22 14 40.5t3 79.5v57h234v-57 q0 -88 -11 -138.5t-41 -99.5q-49 -85 -139 -135.5t-188 -50.5q-96 0 -186.5 51t-140.5 132q-31 51 -42.5 103t-11.5 138z" />
<glyph unicode="D" horiz-adv-x="978" d="M131 0v1639h371q107 0 195.5 -49.5t139 -136.5t50.5 -192v-855q0 -183 -107.5 -294.5t-285.5 -111.5h-363zM364 218h115q88 0 131.5 46t43.5 142v855q0 68 -49 114t-121 46h-120v-1203z" />
<glyph unicode="E" horiz-adv-x="864" d="M131 0v1639h699v-216h-464v-485h408v-220h-408v-482h464v-236h-699z" />
<glyph unicode="F" horiz-adv-x="844" d="M131 0v1639h697v-218h-464v-495h408v-218h-408v-708h-233z" />
<glyph unicode="G" horiz-adv-x="960" d="M91 418v820q0 119 50.5 214t140 148.5t202.5 53.5q105 0 190 -45.5t142 -131.5q38 -56 51 -104.5t13 -134.5v-68h-233v68q0 45 -3.5 62.5t-14.5 38.5q-21 38 -59.5 61t-82.5 23q-74 0 -117.5 -50t-43.5 -135v-820q0 -56 2.5 -71.5t13.5 -36.5q21 -40 60.5 -64.5 t84.5 -24.5q44 0 81.5 23.5t60.5 62.5q18 42 18 111v288h-190v204h423v-492q0 -92 -11.5 -141.5t-45.5 -104.5q-55 -89 -142 -137.5t-189 -48.5q-93 0 -182 44t-146 118q-42 56 -57.5 113t-15.5 157z" />
<glyph unicode="H" horiz-adv-x="1021" d="M131 0v1639h233v-701h295v701h233v-1639h-233v732h-295v-732h-233z" />
<glyph unicode="I" horiz-adv-x="495" d="M131 0v1639h233v-1639h-233z" />
<glyph unicode="J" horiz-adv-x="795" d="M0 138l182 145q60 -60 130 -60q66 0 108 42q33 32 42.5 66t9.5 129v1179h234v-1212q0 -99 -13 -151.5t-51 -111.5q-55 -82 -143.5 -130t-184.5 -48q-88 0 -170.5 40t-143.5 112z" />
<glyph unicode="K" horiz-adv-x="1006" d="M131 0v1639h235v-755l354 755h232l-321 -654l377 -985h-248l-263 732l-131 -242v-490h-235z" />
<glyph unicode="L" horiz-adv-x="832" d="M131 0v1639h233v-1403h466v-236h-699z" />
<glyph unicode="M" horiz-adv-x="1314" d="M131 0v1639h216l312 -872l307 872h216v-1639h-230v997l-237 -699h-117l-234 699v-997h-233z" />
<glyph unicode="N" horiz-adv-x="1081" d="M131 0v1639h221l363 -992v992h234v-1639h-219l-364 995v-995h-235z" />
<glyph unicode="O" horiz-adv-x="969" d="M91 406v835q0 118 51 212.5t142 147.5t203 53q89 0 171 -38.5t136 -107.5q46 -56 66 -118.5t20 -148.5v-835q0 -107 -31 -182t-101 -138q-54 -48 -121.5 -74t-139.5 -26q-113 0 -210 59.5t-146 160.5q-23 44 -31.5 87.5t-8.5 112.5zM324 406q0 -55 11.5 -85t42.5 -58 q49 -42 109 -42q41 0 79 22.5t60 61.5q21 34 21 101v835q0 42 -6.5 66t-23.5 49q-56 67 -127 67q-43 0 -82 -22t-61 -59q-13 -24 -18 -44t-5 -57v-835z" />
<glyph unicode="P" horiz-adv-x="906" d="M131 0v1639h385q72 0 142.5 -29.5t120.5 -80.5q46 -46 78 -116t32 -123v-238q0 -97 -25.5 -166.5t-82.5 -125.5q-61 -62 -127.5 -87.5t-166.5 -25.5h-121v-647h-235zM366 868h124q51 0 80.5 10t55.5 36q29 31 37 54.5t8 83.5v214q0 70 -45.5 113.5t-119.5 43.5h-140v-555 z" />
<glyph unicode="Q" horiz-adv-x="994" d="M91 418v816q0 118 52 214.5t143 151t204 54.5q105 0 195.5 -52.5t143.5 -142t53 -193.5v-848q0 -73 -4.5 -107t-19.5 -67l155 -131l-131 -155l-145 115q-110 -87 -247 -87q-84 0 -166.5 37t-138.5 102q-55 63 -74.5 123.5t-19.5 169.5zM326 418q0 -67 9 -95t38 -55 q46 -50 117 -50q27 0 58 16l-105 88l129 157l75 -61v816q0 84 -44 135.5t-116 51.5q-65 0 -111 -47q-29 -28 -39.5 -58t-10.5 -82v-816z" />
<glyph unicode="R" horiz-adv-x="994" d="M131 0v1639h410q107 0 194 -50.5t137 -139.5t50 -196v-151q0 -122 -45.5 -204.5t-146.5 -145.5l250 -752h-250l-219 703h-145v-703h-235zM366 910h162q49 0 79 12t57 42q24 27 31.5 54t7.5 84v151q0 76 -47.5 123t-125.5 47h-164v-513z" />
<glyph unicode="S" horiz-adv-x="936" d="M66 408v59h236v-59q0 -43 4.5 -64t17.5 -44q23 -39 61.5 -60.5t86.5 -21.5q44 0 83 21t62 56q12 21 16.5 44.5t4.5 70.5v113q0 36 -2 57.5t-11 43t-22 35t-40.5 30t-60 30t-87.5 33.5q-112 43 -171 84t-101 105q-34 53 -46.5 101.5t-12.5 127.5v73q0 114 52.5 208.5 t143 148.5t199.5 54t199 -54t142 -148.5t52 -208.5v-73h-234v73q0 81 -43.5 129.5t-115.5 48.5t-116 -49t-44 -129v-73q0 -46 6 -72t29.5 -49.5t59 -41t104.5 -43.5q190 -71 272 -168.5t82 -254.5v-133q0 -95 -16 -149.5t-62 -115.5q-120 -157 -320 -157 q-181 0 -294.5 117.5t-113.5 304.5z" />
<glyph unicode="T" horiz-adv-x="771" d="M-7 1421v218h788v-218h-277v-1421h-236v1421h-275z" />
<glyph unicode="U" horiz-adv-x="940" d="M91 386v1253h233v-1253q0 -48 10.5 -76t38.5 -52q43 -37 99 -37q67 0 107 45.5t40 119.5v1253h234v-1253q0 -69 -12 -117t-42 -97q-53 -88 -140 -137t-187 -49q-104 0 -194 52.5t-140 141.5q-47 88 -47 206z" />
<glyph unicode="V" horiz-adv-x="877" d="M0 1639h246l188 -1137l195 1137h248l-342 -1639h-200z" />
<glyph unicode="W" horiz-adv-x="1287" d="M0 1639h251l115 -990l190 990h174l192 -990l117 990h249l-231 -1639h-222l-191 997l-189 -997h-216z" />
<glyph unicode="X" horiz-adv-x="906" d="M0 0l337 868l-305 771h245l178 -481l176 481h246l-307 -771l337 -868h-248l-204 556l-207 -556h-248z" />
<glyph unicode="Y" horiz-adv-x="874" d="M0 1639h246l192 -642l191 642h248l-324 -933v-706h-236v706z" />
<glyph unicode="Z" horiz-adv-x="769" d="M32 0v211l440 1210h-408v218h670v-187l-439 -1216h439v-236h-702z" />
<glyph unicode="[" horiz-adv-x="648" d="M131 -368v2056h500v-208h-267v-1640h267v-208h-500z" />
<glyph unicode="\" horiz-adv-x="807" d="M0 1639h148l661 -1970h-153z" />
<glyph unicode="]" horiz-adv-x="648" d="M17 -160h269v1640h-269v208h501v-2056h-501v208z" />
<glyph unicode="^" horiz-adv-x="1228" d="M86 934l442 708h173l439 -708h-214l-312 496l-312 -496h-216z" />
<glyph unicode="_" horiz-adv-x="1228" d="M0 -185h1229v-103h-1229v103z" />
<glyph unicode="`" horiz-adv-x="574" d="M82 1669h223l189 -309h-182z" />
<glyph unicode="a" horiz-adv-x="874" d="M82 268v133q0 131 90 221q49 47 102 65.5t141 18.5h133v100q0 43 -4.5 63.5t-17.5 37.5q-37 49 -94 49q-44 0 -77 -32.5t-38 -83.5h-235q3 146 104 245t248 99q94 0 174.5 -46.5t128 -126t47.5 -171.5v-840h-236v118q-80 -132 -219 -132q-65 0 -124 34t-92 90 q-18 34 -24.5 67.5t-6.5 90.5zM317 347q0 -57 32 -91.5t85 -34.5q32 0 59 15t40 41q11 18 13 36t2 88v113h-88q-143 0 -143 -111v-56z" />
<glyph unicode="b" horiz-adv-x="891" d="M98 0v1639h237v-584q79 129 221 129q112 0 179 -73t67 -197v-642q0 -77 -8.5 -111.5t-36.5 -71.5q-35 -48 -89.5 -75.5t-114.5 -27.5q-138 0 -218 132v-118h-237zM335 361q0 -38 3 -55.5t14 -33.5q16 -24 43 -37.5t57 -13.5q28 0 55.5 15t43.5 39q12 18 14.5 31.5 t2.5 76.5v440q0 59 -32 95t-84 36q-53 0 -85 -35.5t-32 -95.5v-462z" />
<glyph unicode="c" horiz-adv-x="856" d="M91 361v455q0 100 47 185t128 134t177 49q123 0 219.5 -79t121.5 -200q5 -24 6 -36t1 -53h-233q0 61 -32 99.5t-83 38.5q-55 0 -87 -37.5t-32 -100.5v-455q0 -68 30.5 -104t85.5 -36q54 0 86 35.5t32 95.5h233q1 -102 -45 -186t-126 -132t-177 -48q-83 0 -162 40.5 t-126 109.5q-35 47 -49.5 98t-14.5 127z" />
<glyph unicode="d" horiz-adv-x="889" d="M91 300v631q0 109 72 181t179 72q145 0 218 -124v579h234v-1639h-234v120q-76 -134 -220 -134q-56 0 -108 25.5t-89 70.5q-33 42 -42.5 82t-9.5 136zM326 376q0 -50 6 -71t24 -45q38 -37 89 -37q48 0 78 30q25 23 31 43.5t6 79.5v421q0 50 -5.5 72t-21.5 43 q-35 44 -90 44q-34 0 -62.5 -17.5t-40.5 -46.5q-9 -17 -11.5 -32t-2.5 -63v-421z" />
<glyph unicode="e" horiz-adv-x="874" d="M91 380v446q0 98 47 180.5t128.5 130t178.5 47.5q149 0 249 -102.5t100 -255.5v-324h-468v-122q0 -63 5 -80t28 -42q31 -35 84 -35q49 0 79.5 30.5t37.5 86.5h234v-8q0 -90 -45 -168q-47 -82 -128 -130t-175.5 -48t-179.5 49.5t-130 133.5q-26 46 -35.5 90t-9.5 121z M326 694h234v115q0 68 -30 106.5t-85 38.5q-32 0 -60.5 -16.5t-42.5 -43.5q-16 -25 -16 -85v-115z" />
<glyph unicode="f" horiz-adv-x="606" d="M49 983v187h115v162q0 72 22 126t69.5 99.5t99.5 63.5t137 18h80v-216h-85q-44 0 -65 -22t-21 -69v-162h171v-187h-171v-983h-237v983h-115z" />
<glyph unicode="g" horiz-adv-x="889" d="M91 -127h235q6 -55 37 -87t80 -32q29 0 54.5 13t41.5 36q13 19 17 37t4 59v221q-78 -134 -220 -134q-67 0 -126.5 35t-93.5 92q-20 36 -24.5 61.5t-4.5 102.5v652q0 111 71 183t180 72q135 0 218 -124v110h234v-1271q0 -108 -24 -170.5t-87 -119.5q-48 -44 -109.5 -68.5 t-128.5 -24.5q-97 0 -178.5 47.5t-128.5 129.5t-47 180zM326 366q0 -36 3.5 -53t12.5 -33q16 -26 44 -41.5t59 -15.5q57 0 86 36.5t29 106.5v445q0 70 -30 107.5t-85 37.5q-45 0 -81 -32q-23 -23 -30.5 -44.5t-7.5 -68.5v-445z" />
<glyph unicode="h" horiz-adv-x="889" d="M98 0v1639h233v-582q80 127 220 127q62 0 118.5 -30.5t90.5 -81.5q22 -33 30.5 -70t8.5 -95v-907h-234v818q0 65 -30 100.5t-85 35.5q-51 0 -85 -38t-34 -98v-818h-233z" />
<glyph unicode="i" horiz-adv-x="429" d="M98 0v1170h233v-1170h-233zM98 1411v228h233v-228h-233z" />
<glyph unicode="j" horiz-adv-x="456" d="M-17 -244h22q61 0 89 36t28 112v1266h234v-1285q0 -162 -89.5 -257t-242.5 -95h-41v223zM122 1414v225h234v-225h-234z" />
<glyph unicode="k" horiz-adv-x="915" d="M98 0v1639h233v-975l293 506h236l-278 -464l335 -706h-263l-206 499l-117 -175v-324h-233z" />
<glyph unicode="l" horiz-adv-x="462" d="M98 295v1344h233v-1304q0 -69 19 -90.5t80 -21.5h18v-223h-52q-159 0 -241 101q-33 40 -45 80t-12 114z" />
<glyph unicode="m" horiz-adv-x="1358" d="M98 0v1170h233v-106q80 120 217.5 120t213.5 -120q49 63 103.5 91.5t124.5 28.5q122 0 200 -82t78 -210v-892h-234v828q0 63 -28.5 95.5t-83.5 32.5q-52 0 -87.5 -37.5t-35.5 -90.5v-828h-234v828q0 55 -33 91.5t-82 36.5t-84 -37.5t-35 -90.5v-828h-233z" />
<glyph unicode="n" horiz-adv-x="896" d="M98 0v1170h233v-113q78 127 220 127q66 0 123 -32t90 -88q35 -57 35 -154v-910h-234v823q0 61 -29.5 95t-83 34t-87.5 -36t-34 -93v-823h-233z" />
<glyph unicode="o" d="M91 359v467q0 153 102 255.5t255 102.5q150 0 248 -101.5t98 -256.5v-467q0 -161 -100.5 -267t-253.5 -106q-151 0 -250 105.5t-99 267.5zM324 359q0 -63 32.5 -99.5t86.5 -36.5q32 0 59.5 14.5t43.5 39.5q9 15 11.5 29.5t2.5 52.5v467q0 59 -32 94.5t-85 35.5 q-52 0 -85.5 -37t-33.5 -93v-467z" />
<glyph unicode="p" horiz-adv-x="891" d="M98 -467v1637h237v-115q82 129 221 129q105 0 175.5 -74t70.5 -186v-673q0 -50 -8.5 -83t-29.5 -65q-33 -54 -89 -85.5t-119 -31.5q-71 0 -127.5 33t-93.5 96v-582h-237zM335 364q0 -146 117 -146q44 0 81 33q22 20 28.5 40.5t6.5 72.5v457q0 59 -32.5 95t-85.5 36 q-52 0 -83.5 -36t-31.5 -95v-457z" />
<glyph unicode="q" horiz-adv-x="889" d="M91 258v673q0 107 73 180t178 73q135 0 216 -129v115h233v-1637h-233v582q-46 -68 -97.5 -98.5t-118.5 -30.5t-125.5 32.5t-91.5 89.5q-21 33 -27.5 63t-6.5 87zM324 376q0 -51 5 -72.5t20 -43.5q33 -42 91 -42q32 0 59.5 15.5t41.5 41.5q11 16 14 34.5t3 66.5v445 q0 59 -31 95t-84 36q-54 0 -86.5 -36t-32.5 -95v-445z" />
<glyph unicode="r" horiz-adv-x="636" d="M98 0v1170h233v-126q60 69 132.5 103.5t172.5 41.5v-246q-49 11 -71 11q-83 0 -155 -60q-44 -43 -61.5 -87.5t-17.5 -121.5v-685h-233z" />
<glyph unicode="s" horiz-adv-x="832" d="M66 337h220q0 -57 37.5 -94t96.5 -37q55 0 91.5 38.5t36.5 95.5q0 52 -29 81.5t-109 57.5l-46 18q-92 34 -134.5 58t-74.5 64q-76 94 -76 219q0 94 44.5 174t122 126t169.5 46q137 0 234 -97t101 -239h-217q-4 54 -35 85t-80.5 31t-83.5 -36.5t-34 -87.5t26.5 -79.5 t98.5 -54.5l77 -26q85 -30 133 -65.5t83 -96.5q51 -83 51 -181q0 -95 -46.5 -177t-126.5 -129.5t-174 -47.5q-92 0 -178 47.5t-131 124.5q-25 43 -36 85t-11 97z" />
<glyph unicode="t" horiz-adv-x="528" d="M17 983v187h116v354h233v-354h148v-187h-148v-657q0 -65 17 -84t77 -19h54v-223h-74q-94 0 -152.5 24.5t-102.5 83.5q-30 39 -41 76t-11 102v697h-116z" />
<glyph unicode="u" horiz-adv-x="889" d="M91 290v880h233v-792q0 -46 3 -63.5t13 -34.5q12 -28 39.5 -43.5t60.5 -15.5q32 0 59.5 15.5t41.5 43.5q11 15 14 35.5t3 62.5v792h233v-1170h-233v118q-44 -70 -95 -101t-121 -31q-68 0 -128.5 35t-93.5 94q-18 35 -23.5 67.5t-5.5 107.5z" />
<glyph unicode="v" horiz-adv-x="817" d="M0 1170h248l160 -757l162 757h248l-307 -1170h-206z" />
<glyph unicode="w" horiz-adv-x="1228" d="M0 1170h248l148 -727l132 727h173l134 -727l145 727h249l-277 -1170h-202l-133 701l-133 -701h-204z" />
<glyph unicode="x" horiz-adv-x="847" d="M17 0l297 602l-277 568h251l142 -332l152 332h248l-282 -568l285 -602h-249l-154 366l-165 -366h-248z" />
<glyph unicode="y" horiz-adv-x="842" d="M0 1170h248l162 -727l162 727h246l-337 -1367q-35 -137 -117 -203.5t-219 -66.5h-54v221h49q65 0 93.5 28t49.5 108l41 157z" />
<glyph unicode="z" horiz-adv-x="736" d="M49 0v192l376 776h-349v202h612v-173l-376 -774h376v-223h-639z" />
<glyph unicode="{" horiz-adv-x="790" d="M131 600v120q77 24 109 76t32 156v404q0 104 24.5 170.5t76.5 105.5q42 31 112.5 43.5t202.5 12.5q56 0 103 -2v-192q-87 0 -138.5 -9.5t-84.5 -37t-45 -70.5t-12 -116v-330q0 -114 -28 -173t-100 -99q72 -39 100 -97.5t28 -172.5v-330q0 -73 12 -116t45 -70.5 t84.5 -37.5t138.5 -11v-192h-106q-137 0 -209.5 14.5t-114.5 51.5q-46 38 -67.5 101.5t-21.5 163.5v405q0 104 -32 156t-109 76z" />
<glyph unicode="|" horiz-adv-x="805" d="M326 -410v2049h150v-2049h-150z" />
<glyph unicode="}" horiz-adv-x="790" d="M0 -176q87 1 138.5 11t84.5 37.5t45 70.5t12 116v330q0 114 28 172.5t100 97.5q-72 40 -100 99t-28 173v330q0 73 -12 116t-45 70.5t-84.5 37t-138.5 9.5v192q47 2 103 2q139 0 211.5 -14.5t115.5 -51.5q46 -40 67 -103.5t21 -162.5v-404q0 -103 32.5 -155.5t110.5 -76.5 v-120q-78 -24 -110.5 -76.5t-32.5 -155.5v-405q0 -104 -24.5 -170t-75.5 -105q-42 -31 -113 -43.5t-199 -12.5h-106v192z" />
<glyph unicode="~" horiz-adv-x="1336" d="M82 1508q129 262 326 262q50 0 116.5 -23t169.5 -75q104 -54 149 -70.5t88 -16.5q71 0 125.5 43.5t113.5 146.5l86 -106q-61 -128 -146 -194t-191 -66q-53 0 -108.5 21t-203.5 96q-128 66 -206 66q-69 0 -123 -44t-114 -148z" />
<glyph unicode="&#xa1;" horiz-adv-x="387" d="M49 -410l89 1228h113l89 -1228h-291zM76 995v234h234v-234h-234z" />
<glyph unicode="&#xa2;" d="M106 539v456q0 114 58.5 204.5t161.5 134.5v143h234v-131q113 -37 181 -127t68 -204q0 -11 -3 -20h-231q0 61 -33 99.5t-85 38.5q-54 0 -85.5 -37.5t-31.5 -100.5v-456q0 -67 30 -102.5t87 -35.5q52 0 85 35.5t33 91.5h231l3 -17q0 -112 -68 -202t-181 -129v-131h-234 v143q-108 44 -164 132t-56 215z" />
<glyph unicode="&#xa3;" d="M-7 0v236h167v519h-167v209h169v277q0 118 51 212.5t141.5 147.5t203.5 53q90 0 171 -38.5t136 -107.5q48 -59 66.5 -116.5t20.5 -150.5h-232q0 43 -7 66.5t-25 48.5q-52 67 -128 67q-40 0 -80 -22.5t-62 -58.5q-13 -23 -17.5 -43t-4.5 -58v-277h242v-209h-242v-519h469 v-236h-872z" />
<glyph unicode="&#xa4;" horiz-adv-x="1522" d="M96 1414l89 87l225 -228q99 71 177.5 99t175 28t174 -28t174.5 -99l228 226l87 -85l-227 -227q66 -86 96 -169.5t30 -179.5q0 -95 -26 -169.5t-94 -174.5l223 -226l-86 -88l-226 226q-161 -126 -342 -126q-94 0 -178 29t-183 97l-223 -224l-87 86l219 226 q-123 162 -123 348q0 93 28.5 171.5t96.5 173.5zM342 842q0 -115 56.5 -212t153 -153.5t210.5 -56.5t210.5 56.5t153 153.5t56.5 212q0 86 -33.5 164t-89.5 135t-132.5 91t-159.5 34q-118 0 -215.5 -56t-153.5 -153.5t-56 -214.5z" />
<glyph unicode="&#xa5;" d="M2 1639h246l192 -642l191 642h246l-179 -523h113v-197h-182l-45 -131h227v-195h-255v-593h-237v593h-251v195h222l-44 131h-178v197h112z" />
<glyph unicode="&#xa6;" horiz-adv-x="805" d="M326 376h150v-786h-150v786zM326 828v811h150v-811h-150z" />
<glyph unicode="&#xa7;" horiz-adv-x="1095" d="M82 835q0 217 178 364q-124 128 -124 297q0 110 56 205t152.5 150.5t208.5 55.5q110 0 203 -53.5t148 -146t57 -203.5h-253q-7 79 -48 123.5t-109 44.5q-74 0 -119.5 -51t-45.5 -132q0 -69 35 -107t120 -64l97 -30q104 -32 161 -67.5t108 -99.5q106 -130 106 -291 q0 -108 -48 -205t-135 -168q126 -129 126 -295q0 -112 -55.5 -208t-151.5 -151.5t-208 -55.5q-111 0 -205 53.5t-148.5 148t-54.5 208.5h253q0 -82 43 -129t117 -47q72 0 116 50t44 131q0 73 -34.5 112t-125.5 70l-108 34q-85 28 -131.5 54.5t-90.5 71.5q-64 64 -99 151.5 t-35 179.5zM329 851q0 -170 175 -229l103 -35q85 40 119 91.5t34 137.5q0 70 -30 125q-23 40 -47.5 58t-89.5 40l-101 35q-79 -28 -121 -85t-42 -138z" />
<glyph unicode="&#xa8;" horiz-adv-x="786" d="M82 1360v225h230v-225h-230zM472 1360v225h231v-225h-231z" />
<glyph unicode="&#xa9;" horiz-adv-x="1958" d="M136 826q0 115 30.5 224t85.5 200.5t133.5 168.5t172.5 131t205.5 83.5t228.5 29.5q112 0 219 -30.5t198 -85.5t168.5 -133t131.5 -170.5t84.5 -201t30.5 -221.5q0 -115 -30.5 -224.5t-85 -202t-132.5 -170.5t-170.5 -132.5t-201.5 -85t-224 -30.5t-225 30.5t-202.5 85 t-170.5 132.5t-132 171.5t-84 203.5t-30 227zM241 826q0 -153 58 -291t156.5 -237.5t235.5 -157.5t289 -58q150 0 286.5 58.5t235.5 157.5t157.5 236t58.5 287q0 147 -58.5 283.5t-156.5 235.5t-232.5 158.5t-280.5 59.5q-341 0 -560 -245q-90 -100 -139.5 -227.5 t-49.5 -259.5zM755 572v509q0 102 65 170.5t163 68.5q95 0 161 -68.5t66 -170.5v-51h-141v51q0 46 -23 72.5t-63 26.5q-39 0 -62 -27.5t-23 -71.5v-509q0 -44 3.5 -58t20.5 -30q22 -27 58 -27q24 0 46.5 12.5t33.5 32.5q7 10 8 21t1 49v35h141v-35q0 -50 -7.5 -81t-25.5 -61 q-28 -51 -81.5 -82t-112.5 -31q-56 0 -110.5 31t-86.5 79q-18 32 -24.5 63t-6.5 82z" />
<glyph unicode="&#xaa;" horiz-adv-x="584" d="M82 685v131h422v-131h-422zM82 1116v78q0 86 53.5 135.5t147.5 49.5h81v59q0 42 -18 65t-53 23q-28 0 -48.5 -19.5t-23.5 -49.5h-139q1 90 61.5 150t149.5 60q88 0 149.5 -61.5t61.5 -148.5v-501h-140v69q-50 -79 -136 -79q-68 0 -107 46t-39 124zM221 1163 q0 -33 20.5 -54t53.5 -21q19 0 35.5 9.5t23.5 25.5q7 9 8.5 19t1.5 52v70h-54q-89 0 -89 -68v-33z" />
<glyph unicode="&#xab;" horiz-adv-x="957" d="M0 708l467 467v-232l-233 -235l233 -234v-235zM410 708l467 467v-232l-233 -235l233 -234v-235z" />
<glyph unicode="&#xac;" horiz-adv-x="1228" d="M82 541v132h1063v-673h-144v541h-919z" />
<glyph unicode="&#xad;" horiz-adv-x="734" d="M17 528v234h701v-234h-701z" />
<glyph unicode="&#xae;" horiz-adv-x="1958" d="M136 826q0 115 30.5 224t85.5 200.5t133.5 168.5t172.5 131t205.5 83.5t228.5 29.5q112 0 219 -30.5t198 -85.5t168.5 -133t131.5 -170.5t84.5 -201t30.5 -221.5q0 -115 -30.5 -224.5t-85 -202t-132.5 -170.5t-170.5 -132.5t-201.5 -85t-224 -30.5t-225 30.5t-202.5 85 t-170.5 132.5t-132 171.5t-84 203.5t-30 227zM241 826q0 -153 58 -291t156.5 -237.5t235.5 -157.5t289 -58q150 0 286.5 58.5t235.5 157.5t157.5 236t58.5 287q0 147 -58.5 283.5t-156.5 235.5t-232.5 158.5t-280.5 59.5q-341 0 -560 -245q-90 -100 -139.5 -227.5 t-49.5 -259.5zM762 326v984h246q95 0 161.5 -67.5t66.5 -163.5v-94q0 -72 -27 -119.5t-88 -86.5l150 -453h-150l-131 424h-85v-424h-143zM905 872h96q53 0 78 27t25 86v94q0 44 -28.5 72.5t-72.5 28.5h-98v-308z" />
<glyph unicode="&#xaf;" horiz-adv-x="751" d="M82 1393v160h586v-160h-586z" />
<glyph unicode="&#xb0;" horiz-adv-x="842" d="M98 1334q0 87 43.5 162t118 118.5t162.5 43.5q136 0 229.5 -95t93.5 -233q0 -86 -43.5 -159.5t-118 -117t-161.5 -43.5q-135 0 -229.5 94.5t-94.5 229.5zM199 1332q0 -92 65.5 -156.5t157.5 -64.5q90 0 156 65t66 154q0 95 -64.5 160t-157.5 65q-91 0 -157 -65.5 t-66 -157.5z" />
<glyph unicode="&#xb1;" horiz-adv-x="864" d="M82 0v234h699v-234h-699zM82 580v234h232v232h234v-232h233v-234h-233v-233h-234v233h-232z" />
<glyph unicode="&#xb2;" horiz-adv-x="520" d="M49 1356v72q6 100 64 160.5t150 60.5q88 0 148.5 -61.5t60.5 -149.5v-92q0 -22 -10 -57t-24 -63l-220 -429h254v-141h-420v130l262 506q11 21 14 34.5t3 37.5v74q0 31 -19.5 52.5t-51.5 21.5q-33 0 -50.5 -21.5t-17.5 -62.5v-72h-143z" />
<glyph unicode="&#xb3;" horiz-adv-x="535" d="M49 882v56h141v-46q0 -55 17 -79.5t56 -24.5q31 0 48.5 25t17.5 69v152q0 38 -21 55t-67 17h-25v123h25q49 0 68.5 18.5t19.5 65.5v115q0 39 -18 61.5t-51 22.5t-51.5 -22t-18.5 -62v-72h-141v72q0 96 60 158.5t151 62.5q90 0 149.5 -63t59.5 -158v-113 q0 -53 -18.5 -86.5t-64.5 -60.5q50 -34 66.5 -65t16.5 -90v-131q0 -50 -4.5 -72.5t-21.5 -54.5q-30 -48 -79.5 -78t-100.5 -30q-96 0 -155 64t-59 171z" />
<glyph unicode="&#xb4;" horiz-adv-x="574" d="M82 1360l188 309h224l-234 -309h-178z" />
<glyph unicode="&#xb5;" horiz-adv-x="896" d="M98 -467v1637h233v-792q0 -46 3 -63.5t13 -34.5q12 -28 39.5 -43.5t61.5 -15.5q32 0 59 15.5t41 43.5q11 15 14 35.5t3 62.5v792h234v-1170h-234v118q-46 -71 -96 -101.5t-120 -30.5h-18v-453h-233z" />
<glyph unicode="&#xb6;" horiz-adv-x="1243" d="M17 1199q0 121 55 221t151 156q114 63 328 63h563v-1983h-234v1784h-138v-1784h-233v1116q-15 -3 -35 -3q-133 0 -237.5 54.5t-162 152.5t-57.5 223z" />
<glyph unicode="&#xb7;" horiz-adv-x="361" d="M49 455v263h263v-263h-263z" />
<glyph unicode="&#xb8;" horiz-adv-x="505" d="M82 -438l117 311h223l-162 -311h-178z" />
<glyph unicode="&#xb9;" horiz-adv-x="361" d="M17 1388v148l140 103h141v-983h-141v836z" />
<glyph unicode="&#xba;" horiz-adv-x="584" d="M82 685v131h420v-131h-420zM82 1170v280q0 92 61 154.5t152 62.5q89 0 148 -62t59 -155v-280q0 -95 -61 -159.5t-151 -64.5q-89 0 -148.5 64t-59.5 160zM221 1170q0 -37 19.5 -59.5t52.5 -22.5q68 0 68 82v280q0 35 -19.5 57t-51.5 22q-30 0 -49.5 -22.5t-19.5 -56.5 v-280z" />
<glyph unicode="&#xbb;" horiz-adv-x="957" d="M82 239v235l232 234l-232 235v232l466 -467zM492 239v235l233 234l-233 235v232l467 -467z" />
<glyph unicode="&#xbc;" horiz-adv-x="1243" d="M66 1388v148l140 103h141v-983h-141v836zM241 0l553 1639h147l-547 -1639h-153zM688 150v130l204 703h150l-212 -703h141v283h140v-283h69v-130h-69v-150h-140v150h-283z" />
<glyph unicode="&#xbd;" horiz-adv-x="1252" d="M66 1388v148l140 103h141v-983h-141v836zM241 0l553 1639h147l-547 -1639h-153zM764 703v71q6 100 64 159t150 59q88 0 148.5 -60t60.5 -148v-90q0 -24 -10 -60t-24 -62l-219 -432h253v-140h-420v131l263 507q10 21 13 34.5t3 37.5v74q0 30 -19.5 51t-50.5 21 q-33 0 -51 -21.5t-18 -60.5v-71h-143z" />
<glyph unicode="&#xbe;" horiz-adv-x="1351" d="M66 882v56h140v-46q0 -55 17.5 -79.5t56.5 -24.5q31 0 49 25t18 69v152q0 37 -21.5 54.5t-67.5 17.5h-24v123h24q49 0 69 19t20 65v115q0 39 -18.5 61.5t-51.5 22.5t-52 -22t-19 -62v-72h-140v72q0 96 60 158.5t151 62.5q90 0 150 -63t60 -158v-113q0 -53 -19 -86 t-65 -61q50 -34 67 -65t17 -90v-131q0 -49 -5 -71.5t-22 -55.5q-30 -48 -79.5 -78t-100.5 -30q-96 0 -155 64t-59 171zM347 0l555 1639h147l-547 -1639h-155zM797 150v130l204 703h149l-212 -703h141v283h140v-283h69v-130h-69v-150h-140v150h-282z" />
<glyph unicode="&#xbf;" horiz-adv-x="778" d="M49 56q0 124 57 221l120 215q41 67 49 95t8 101v130h235v-130q0 -105 -14 -161t-59 -131l-123 -199q-24 -38 -31.5 -68.5t-7.5 -84.5v-128q0 -47 33 -77.5t82 -30.5q116 0 116 138v110h234v-110q0 -160 -102 -265.5t-255 -105.5q-91 0 -170 46.5t-125.5 125t-46.5 169.5 v140zM283 995v234h235v-234h-235z" />
<glyph unicode="&#xc0;" horiz-adv-x="936" d="M0 0l366 1639h204l366 -1639h-251l-66 352h-305l-66 -352h-248zM160 2069h220l190 -310h-179zM356 570h221l-110 598z" />
<glyph unicode="&#xc1;" horiz-adv-x="936" d="M0 0l366 1639h204l366 -1639h-251l-66 352h-305l-66 -352h-248zM356 570h221l-110 598zM389 1759l188 310h222l-231 -310h-179z" />
<glyph unicode="&#xc2;" horiz-adv-x="936" d="M0 0l366 1639h204l366 -1639h-251l-66 352h-305l-66 -352h-248zM133 1759l235 303h197l237 -303h-220l-115 175l-115 -175h-219zM356 570h221l-110 598z" />
<glyph unicode="&#xc3;" horiz-adv-x="936" d="M0 0l366 1639h204l366 -1639h-251l-66 352h-305l-66 -352h-248zM140 1784q4 71 13 108.5t32 70.5q24 37 65 59.5t85 22.5q38 0 70 -14.5t99 -60.5q73 -45 108 -45q28 0 42 19.5t22 67.5h121q-11 -255 -190 -255q-40 0 -78.5 16.5t-88.5 55.5q-42 31 -65.5 42.5 t-48.5 11.5q-58 0 -66 -99h-120zM356 570h221l-110 598z" />
<glyph unicode="&#xc4;" horiz-adv-x="936" d="M0 0l366 1639h204l366 -1639h-251l-66 352h-305l-66 -352h-248zM162 1759v234h232v-234h-232zM356 570h221l-110 598zM544 1759v234h230v-234h-230z" />
<glyph unicode="&#xc5;" horiz-adv-x="936" d="M0 0l366 1639h204l366 -1639h-251l-66 352h-305l-66 -352h-248zM251 1904q0 89 64 151.5t154 62.5q88 0 151 -64t63 -152q0 -90 -63 -153t-153 -63t-153 63.5t-63 154.5zM356 570h221l-110 598zM378 1902q0 -37 26 -63t63 -26t63 26t26 63q0 35 -26 60.5t-61 25.5 q-38 0 -64.5 -25.5t-26.5 -60.5z" />
<glyph unicode="&#xc6;" horiz-adv-x="1545" d="M0 0l673 1639h841v-216h-465v-509h405v-220h-405v-458h465v-236h-700v698h-303l-263 -698h-248zM595 917h219v535z" />
<glyph unicode="&#xc7;" d="M91 410v846q0 99 31 170.5t99 131.5q51 45 116.5 70.5t134.5 25.5q105 0 192 -52t137 -143.5t50 -202.5v-86h-234v86q0 76 -38.5 119t-106.5 43q-67 0 -106.5 -44t-39.5 -118v-846q0 -74 6 -97t34 -50q44 -45 103 -45q38 0 74 20t57 52q11 22 14 40.5t3 79.5v57h234v-57 q0 -88 -11 -138.5t-41 -99.5q-49 -85 -139 -135.5t-188 -50.5q-96 0 -186.5 51t-140.5 132q-31 51 -42.5 103t-11.5 138zM258 -438l118 311h224l-162 -311h-180z" />
<glyph unicode="&#xc8;" horiz-adv-x="864" d="M131 0v1639h699v-216h-464v-485h408v-220h-408v-482h464v-236h-699zM218 2069h225l188 -310h-181z" />
<glyph unicode="&#xc9;" horiz-adv-x="864" d="M131 0v1639h699v-216h-464v-485h408v-220h-408v-482h464v-236h-699zM368 1759l190 310h223l-233 -310h-180z" />
<glyph unicode="&#xca;" horiz-adv-x="864" d="M131 0v1639h699v-216h-464v-485h408v-220h-408v-482h464v-236h-699zM148 1759l235 303h197l236 -303h-218l-117 175l-115 -175h-218z" />
<glyph unicode="&#xcb;" horiz-adv-x="864" d="M131 0v1639h699v-216h-464v-485h408v-220h-408v-482h464v-236h-699zM174 1759v234h232v-234h-232zM556 1759v234h230v-234h-230z" />
<glyph unicode="&#xcc;" horiz-adv-x="495" d="M-61 2069h223l190 -310h-183zM131 0v1639h233v-1639h-233z" />
<glyph unicode="&#xcd;" horiz-adv-x="495" d="M131 0v1639h233v-1639h-233zM172 1759l189 310h223l-232 -310h-180z" />
<glyph unicode="&#xce;" horiz-adv-x="495" d="M-86 1759l236 303h197l235 -303h-218l-116 175l-115 -175h-219zM133 0v1639h233v-1639h-233z" />
<glyph unicode="&#xcf;" horiz-adv-x="495" d="M-35 1759v234h232v-234h-232zM133 0v1639h233v-1639h-233zM300 1759v234h230v-234h-230z" />
<glyph unicode="&#xd0;" horiz-adv-x="985" d="M32 737v219h106v683h371q107 0 195.5 -49.5t139 -136.5t50.5 -192v-855q0 -183 -107.5 -294.5t-284.5 -111.5h-364v737h-106zM371 218h113q90 0 133.5 46t43.5 142v855q0 68 -48.5 114t-120.5 46h-121v-465h101v-219h-101v-519z" />
<glyph unicode="&#xd1;" horiz-adv-x="1081" d="M131 0v1639h221l363 -992v992h234v-1639h-219l-364 995v-995h-235zM211 1784q4 71 13 108.5t32 70.5q24 37 65 59.5t85 22.5q37 0 70 -14.5t101 -60.5q69 -45 108 -45q26 0 40.5 20t22.5 67h120q-11 -255 -190 -255q-40 0 -78.5 16.5t-88.5 55.5q-43 32 -66 43t-47 11 q-60 0 -67 -99h-120z" />
<glyph unicode="&#xd2;" horiz-adv-x="969" d="M91 406v835q0 118 51 212.5t142 147.5t203 53q89 0 171 -38.5t136 -107.5q46 -56 66 -118.5t20 -148.5v-835q0 -107 -31 -182t-101 -138q-54 -48 -121.5 -74t-139.5 -26q-113 0 -210 59.5t-146 160.5q-23 44 -31.5 87.5t-8.5 112.5zM192 2069h221l189 -310h-180zM324 406 q0 -55 11.5 -85t42.5 -58q49 -42 109 -42q41 0 79 22.5t60 61.5q21 34 21 101v835q0 42 -6.5 66t-23.5 49q-56 67 -127 67q-43 0 -82 -22t-61 -59q-13 -24 -18 -44t-5 -57v-835z" />
<glyph unicode="&#xd3;" horiz-adv-x="969" d="M91 406v835q0 118 51 212.5t142 147.5t203 53q89 0 171 -38.5t136 -107.5q46 -56 66 -118.5t20 -148.5v-835q0 -107 -31 -182t-101 -138q-54 -48 -121.5 -74t-139.5 -26q-113 0 -210 59.5t-146 160.5q-23 44 -31.5 87.5t-8.5 112.5zM324 406q0 -55 11.5 -85t42.5 -58 q49 -42 109 -42q41 0 79 22.5t60 61.5q21 34 21 101v835q0 42 -6.5 66t-23.5 49q-56 67 -127 67q-43 0 -82 -22t-61 -59q-13 -24 -18 -44t-5 -57v-835zM389 1759l186 310h224l-231 -310h-179z" />
<glyph unicode="&#xd4;" horiz-adv-x="969" d="M91 406v835q0 118 51 212.5t142 147.5t203 53q89 0 171 -38.5t136 -107.5q46 -56 66 -118.5t20 -148.5v-835q0 -107 -31 -182t-101 -138q-54 -48 -121.5 -74t-139.5 -26q-113 0 -210 59.5t-146 160.5q-23 44 -31.5 87.5t-8.5 112.5zM152 1759l237 303h195l237 -303h-219 l-115 175l-116 -175h-219zM324 406q0 -55 11.5 -85t42.5 -58q49 -42 109 -42q41 0 79 22.5t60 61.5q21 34 21 101v835q0 42 -6.5 66t-23.5 49q-56 67 -127 67q-43 0 -82 -22t-61 -59q-13 -24 -18 -44t-5 -57v-835z" />
<glyph unicode="&#xd5;" horiz-adv-x="969" d="M91 406v835q0 118 51 212.5t142 147.5t203 53q89 0 171 -38.5t136 -107.5q46 -56 66 -118.5t20 -148.5v-835q0 -107 -31 -182t-101 -138q-54 -48 -121.5 -74t-139.5 -26q-113 0 -210 59.5t-146 160.5q-23 44 -31.5 87.5t-8.5 112.5zM157 1784q4 71 13 108.5t32 70.5 q26 37 67 59.5t85 22.5q37 0 70.5 -15t98.5 -60q69 -45 108 -45q26 0 40.5 20t22.5 67h120q-11 -255 -188 -255q-42 0 -80.5 16.5t-88.5 55.5q-42 31 -65 42.5t-45 11.5q-63 0 -70 -99h-120zM324 406q0 -55 11.5 -85t42.5 -58q49 -42 109 -42q41 0 79 22.5t60 61.5 q21 34 21 101v835q0 42 -6.5 66t-23.5 49q-56 67 -127 67q-43 0 -82 -22t-61 -59q-13 -24 -18 -44t-5 -57v-835z" />
<glyph unicode="&#xd6;" horiz-adv-x="969" d="M91 406v835q0 118 51 212.5t142 147.5t203 53q89 0 171 -38.5t136 -107.5q46 -56 66 -118.5t20 -148.5v-835q0 -107 -31 -182t-101 -138q-54 -48 -121.5 -74t-139.5 -26q-113 0 -210 59.5t-146 160.5q-23 44 -31.5 87.5t-8.5 112.5zM180 1759v234h230v-234h-230zM324 406 q0 -55 11.5 -85t42.5 -58q49 -42 109 -42q41 0 79 22.5t60 61.5q21 34 21 101v835q0 42 -6.5 66t-23.5 49q-56 67 -127 67q-43 0 -82 -22t-61 -59q-13 -24 -18 -44t-5 -57v-835zM560 1759v234h231v-234h-231z" />
<glyph unicode="&#xd7;" horiz-adv-x="868" d="M49 378l209 209l-209 210l174 174l211 -211l213 211l174 -174l-209 -210l209 -209l-174 -172l-213 212l-211 -212z" />
<glyph unicode="&#xd8;" horiz-adv-x="969" d="M91 406v835q0 116 51 210.5t140.5 148.5t201.5 54q66 0 147 -27l33 96l196 -65l-54 -166q41 -55 57.5 -112t16.5 -139v-835q0 -107 -31 -182t-101 -138q-54 -47 -123 -73.5t-141 -26.5q-76 0 -160 33l-29 -85l-199 66l56 169q-35 53 -48 104t-13 133zM324 696l234 709 q-36 18 -68 18q-43 0 -82 -22t-61 -59q-13 -22 -18 -42t-5 -59v-545zM398 248q44 -27 86 -27t81 22.5t61 61.5q21 34 21 101v600z" />
<glyph unicode="&#xd9;" horiz-adv-x="940" d="M91 386v1253h233v-1253q0 -48 10.5 -76t38.5 -52q43 -37 99 -37q67 0 107 45.5t40 119.5v1253h234v-1253q0 -69 -12 -117t-42 -97q-53 -88 -140 -137t-187 -49q-104 0 -194 52.5t-140 141.5q-47 88 -47 206zM204 2069h223l190 -310h-179z" />
<glyph unicode="&#xda;" horiz-adv-x="940" d="M91 386v1253h233v-1253q0 -48 10.5 -76t38.5 -52q43 -37 99 -37q67 0 107 45.5t40 119.5v1253h234v-1253q0 -69 -12 -117t-42 -97q-53 -88 -140 -137t-187 -49q-104 0 -194 52.5t-140 141.5q-47 88 -47 206zM383 1759l189 310h222l-231 -310h-180z" />
<glyph unicode="&#xdb;" horiz-adv-x="940" d="M91 386v1253h233v-1253q0 -48 10.5 -76t38.5 -52q43 -37 99 -37q67 0 107 45.5t40 119.5v1253h234v-1253q0 -69 -12 -117t-42 -97q-53 -88 -140 -137t-187 -49q-104 0 -194 52.5t-140 141.5q-47 88 -47 206zM138 1759l235 303h197l236 -303h-219l-115 175l-116 -175h-218 z" />
<glyph unicode="&#xdc;" horiz-adv-x="940" d="M91 386v1253h233v-1253q0 -48 10.5 -76t38.5 -52q43 -37 99 -37q67 0 107 45.5t40 119.5v1253h234v-1253q0 -69 -12 -117t-42 -97q-53 -88 -140 -137t-187 -49q-104 0 -194 52.5t-140 141.5q-47 88 -47 206zM164 1759v234h232v-234h-232zM548 1759v234h231v-234h-231z " />
<glyph unicode="&#xdd;" horiz-adv-x="874" d="M0 1639h246l192 -642l191 642h248l-324 -933v-706h-236v706zM349 1759l190 310h223l-234 -310h-179z" />
<glyph unicode="&#xde;" horiz-adv-x="906" d="M131 0v1639h235v-277h121q107 0 181.5 -32t135.5 -104q46 -54 65.5 -116.5t19.5 -153.5v-182q0 -98 -25.5 -167t-82.5 -126q-61 -61 -127.5 -87t-166.5 -26h-121v-368h-235zM366 590h124q51 0 80.5 10t55.5 36q29 30 37 54.5t8 83.5v182q0 59 -8 83t-37 54 q-26 26 -55.5 36.5t-80.5 10.5h-124v-550z" />
<glyph unicode="&#xdf;" horiz-adv-x="889" d="M98 0v1273q0 80 10 120.5t40 90.5q47 80 127.5 125t174.5 45q93 0 174.5 -45.5t129.5 -123t48 -165.5v-150q0 -145 -131 -214q68 -44 99.5 -99.5t31.5 -134.5v-432q0 -81 -19.5 -131.5t-67.5 -92.5q-35 -31 -84 -48.5t-101 -17.5h-51v221h20q46 0 63.5 21t17.5 75v457 q0 44 -22.5 61.5t-78.5 17.5v204h15q46 0 66 19t20 62v157q0 57 -34.5 92.5t-93.5 35.5q-33 0 -60.5 -15t-42.5 -41q-18 -33 -18 -94v-1273h-233z" />
<glyph unicode="&#xe0;" horiz-adv-x="874" d="M82 268v133q0 131 90 221q49 47 102 65.5t141 18.5h133v100q0 43 -4.5 63.5t-17.5 37.5q-37 49 -94 49q-44 0 -77 -32.5t-38 -83.5h-235q3 146 104 245t248 99q94 0 174.5 -46.5t128 -126t47.5 -171.5v-840h-236v118q-80 -132 -219 -132q-65 0 -124 34t-92 90 q-18 34 -24.5 67.5t-6.5 90.5zM174 1669h224l189 -309h-179zM317 347q0 -57 32 -91.5t85 -34.5q32 0 59 15t40 41q11 18 13 36t2 88v113h-88q-143 0 -143 -111v-56z" />
<glyph unicode="&#xe1;" horiz-adv-x="874" d="M82 268v133q0 131 90 221q49 47 102 65.5t141 18.5h133v100q0 43 -4.5 63.5t-17.5 37.5q-37 49 -94 49q-44 0 -77 -32.5t-38 -83.5h-235q3 146 104 245t248 99q94 0 174.5 -46.5t128 -126t47.5 -171.5v-840h-236v118q-80 -132 -219 -132q-65 0 -124 34t-92 90 q-18 34 -24.5 67.5t-6.5 90.5zM317 347q0 -57 32 -91.5t85 -34.5q32 0 59 15t40 41q11 18 13 36t2 88v113h-88q-143 0 -143 -111v-56zM349 1360l190 309h221l-232 -309h-179z" />
<glyph unicode="&#xe2;" horiz-adv-x="874" d="M82 268v133q0 131 90 221q49 47 102 65.5t141 18.5h133v100q0 43 -4.5 63.5t-17.5 37.5q-37 49 -94 49q-44 0 -77 -32.5t-38 -83.5h-235q3 146 104 245t248 99q94 0 174.5 -46.5t128 -126t47.5 -171.5v-840h-236v118q-80 -132 -219 -132q-65 0 -124 34t-92 90 q-18 34 -24.5 67.5t-6.5 90.5zM113 1360l236 301h197l235 -301h-218l-115 174l-117 -174h-218zM317 347q0 -57 32 -91.5t85 -34.5q32 0 59 15t40 41q11 18 13 36t2 88v113h-88q-143 0 -143 -111v-56z" />
<glyph unicode="&#xe3;" horiz-adv-x="874" d="M82 268v133q0 131 90 221q49 47 102 65.5t141 18.5h133v100q0 43 -4.5 63.5t-17.5 37.5q-37 49 -94 49q-44 0 -77 -32.5t-38 -83.5h-235q3 146 104 245t248 99q94 0 174.5 -46.5t128 -126t47.5 -171.5v-840h-236v118q-80 -132 -219 -132q-65 0 -124 34t-92 90 q-18 34 -24.5 67.5t-6.5 90.5zM127 1381q4 70 13 106.5t32 70.5q26 37 67.5 60.5t82.5 23.5q36 0 69.5 -14.5t102.5 -59.5q70 -49 108 -49q27 0 40.5 20t21.5 68h120q-11 -253 -189 -253q-40 0 -79 16.5t-89 55.5q-43 31 -66 42.5t-47 11.5q-58 0 -66 -99h-121zM317 347 q0 -57 32 -91.5t85 -34.5q32 0 59 15t40 41q11 18 13 36t2 88v113h-88q-143 0 -143 -111v-56z" />
<glyph unicode="&#xe4;" horiz-adv-x="874" d="M82 268v133q0 131 90 221q49 47 102 65.5t141 18.5h133v100q0 43 -4.5 63.5t-17.5 37.5q-37 49 -94 49q-44 0 -77 -32.5t-38 -83.5h-235q3 146 104 245t248 99q94 0 174.5 -46.5t128 -126t47.5 -171.5v-840h-236v118q-80 -132 -219 -132q-65 0 -124 34t-92 90 q-18 34 -24.5 67.5t-6.5 90.5zM136 1360v225h230v-225h-230zM317 347q0 -57 32 -91.5t85 -34.5q32 0 59 15t40 41q11 18 13 36t2 88v113h-88q-143 0 -143 -111v-56zM526 1360v225h231v-225h-231z" />
<glyph unicode="&#xe5;" horiz-adv-x="874" d="M82 268v133q0 131 90 221q49 47 102 65.5t141 18.5h133v100q0 43 -4.5 63.5t-17.5 37.5q-37 49 -94 49q-44 0 -77 -32.5t-38 -83.5h-235q3 146 104 245t248 99q94 0 174.5 -46.5t128 -126t47.5 -171.5v-840h-236v118q-80 -132 -219 -132q-65 0 -124 34t-92 90 q-18 34 -24.5 67.5t-6.5 90.5zM253 1526.5q0 84.5 60 143t147 58.5q80 0 139.5 -60t59.5 -142q0 -84 -59.5 -144t-142.5 -60q-84 0 -144 60t-60 144.5zM317 347q0 -57 32 -91.5t85 -34.5q32 0 59 15t40 41q11 18 13 36t2 88v113h-88q-143 0 -143 -111v-56zM368 1524 q0 -37 26 -63t63 -26q35 0 61 26t26 63t-25.5 62.5t-61.5 25.5q-37 0 -63 -25.5t-26 -62.5z" />
<glyph unicode="&#xe6;" horiz-adv-x="1348" d="M91 268v133q0 129 91 221q50 48 101.5 66t141.5 18h133v100q0 43 -5 63.5t-18 37.5q-36 49 -92 49q-45 0 -78 -32.5t-39 -83.5h-235q4 146 105 245t247 99q132 0 235 -88q103 88 236 88q148 0 247.5 -102.5t99.5 -255.5v-324h-467v-122q0 -64 4.5 -81t27.5 -41 q31 -35 84 -35q49 0 79.5 30.5t37.5 86.5h234q1 -96 -46 -177.5t-127.5 -129t-175.5 -47.5q-98 0 -182.5 52t-131.5 142l-40 -62q-80 -132 -218 -132q-65 0 -124.5 34t-93.5 90q-18 34 -24.5 67.5t-6.5 90.5zM326 347q0 -57 33 -91.5t86 -34.5q32 0 59 15t40 41q10 18 12 35 t2 89v113h-89q-143 0 -143 -108v-59zM794 694h233v117q0 69 -30 107t-85 38q-32 0 -60.5 -15.5t-42.5 -42.5q-15 -23 -15 -87v-117z" />
<glyph unicode="&#xe7;" horiz-adv-x="856" d="M91 361v455q0 100 47 185t128 134t177 49q123 0 219.5 -79t121.5 -200q5 -24 6 -36t1 -53h-233q0 61 -32 99.5t-83 38.5q-55 0 -87 -37.5t-32 -100.5v-455q0 -68 30.5 -104t85.5 -36q54 0 86 35.5t32 95.5h233q1 -102 -45 -186t-126 -132t-177 -48q-83 0 -162 40.5 t-126 109.5q-35 47 -49.5 98t-14.5 127zM228 -438l119 311h223l-162 -311h-180z" />
<glyph unicode="&#xe8;" horiz-adv-x="874" d="M91 380v446q0 98 47 180.5t128.5 130t178.5 47.5q149 0 249 -102.5t100 -255.5v-324h-468v-122q0 -63 5 -80t28 -42q31 -35 84 -35q49 0 79.5 30.5t37.5 86.5h234q2 -95 -45 -176.5t-128 -129.5t-175.5 -48t-179.5 49.5t-130 133.5q-26 46 -35.5 90t-9.5 121zM164 1669 h225l188 -309h-179zM326 694h234v115q0 68 -30 106.5t-85 38.5q-32 0 -60.5 -16.5t-42.5 -43.5q-16 -25 -16 -85v-115z" />
<glyph unicode="&#xe9;" horiz-adv-x="874" d="M91 380v446q0 98 47 180.5t128.5 130t178.5 47.5q149 0 249 -102.5t100 -255.5v-324h-468v-122q0 -63 5 -80t28 -42q31 -35 84 -35q49 0 79.5 30.5t37.5 86.5h234q2 -95 -45 -176.5t-128 -129.5t-175.5 -48t-179.5 49.5t-130 133.5q-26 46 -35.5 90t-9.5 121zM326 694 h234v115q0 68 -30 106.5t-85 38.5q-32 0 -60.5 -16.5t-42.5 -43.5q-16 -25 -16 -85v-115zM335 1360l188 309h225l-234 -309h-179z" />
<glyph unicode="&#xea;" horiz-adv-x="874" d="M91 380v446q0 98 47 180.5t128.5 130t178.5 47.5q149 0 249 -102.5t100 -255.5v-324h-468v-122q0 -63 5 -80t28 -42q31 -35 84 -35q49 0 79.5 30.5t37.5 86.5h234q2 -95 -45 -176.5t-128 -129.5t-175.5 -48t-179.5 49.5t-130 133.5q-26 46 -35.5 90t-9.5 121zM108 1360 l236 301h197l235 -301h-218l-115 174l-117 -174h-218zM326 694h234v115q0 68 -30 106.5t-85 38.5q-32 0 -60.5 -16.5t-42.5 -43.5q-16 -25 -16 -85v-115z" />
<glyph unicode="&#xeb;" horiz-adv-x="874" d="M91 380v446q0 98 47 180.5t128.5 130t178.5 47.5q149 0 249 -102.5t100 -255.5v-324h-468v-122q0 -63 5 -80t28 -42q31 -35 84 -35q49 0 79.5 30.5t37.5 86.5h234q2 -95 -45 -176.5t-128 -129.5t-175.5 -48t-179.5 49.5t-130 133.5q-26 46 -35.5 90t-9.5 121zM131 1360 v225h230v-225h-230zM326 694h234v115q0 68 -30 106.5t-85 38.5q-32 0 -60.5 -16.5t-42.5 -43.5q-16 -25 -16 -85v-115zM521 1360v225h231v-225h-231z" />
<glyph unicode="&#xec;" horiz-adv-x="429" d="M-103 1669h223l190 -309h-183zM98 0v1170h233v-1170h-233z" />
<glyph unicode="&#xed;" horiz-adv-x="429" d="M98 0v1170h233v-1170h-233zM131 1360l188 309h225l-234 -309h-179z" />
<glyph unicode="&#xee;" horiz-adv-x="429" d="M-120 1360l235 301h197l236 -301h-219l-115 174l-116 -174h-218zM98 0v1170h233v-1170h-233z" />
<glyph unicode="&#xef;" horiz-adv-x="429" d="M-71 1360v225h231v-225h-231zM98 0v1170h233v-1170h-233zM268 1360v225h231v-225h-231z" />
<glyph unicode="&#xf0;" d="M91 359v467q0 153 102 255.5t255 102.5q25 0 42 -2q-29 65 -46 93.5t-46 61.5l-103 -103l-123 115l96 101q-59 30 -111 49l89 135q54 -9 145 -54l83 87l133 -121l-72 -71q84 -78 134 -164t81 -207q44 -153 44 -310v-435q0 -161 -100.5 -267t-253.5 -106 q-151 0 -250 105.5t-99 267.5zM324 359q0 -63 32.5 -99.5t86.5 -36.5q32 0 59.5 14.5t43.5 39.5q9 15 11.5 29.5t2.5 52.5v467q0 59 -32 94.5t-85 35.5q-52 0 -85.5 -37t-33.5 -93v-467z" />
<glyph unicode="&#xf1;" horiz-adv-x="896" d="M98 0v1170h233v-113q78 127 220 127q66 0 123 -32t90 -88q35 -57 35 -154v-910h-234v823q0 61 -29.5 95t-83 34t-87.5 -36t-34 -93v-823h-233zM136 1381q3 70 12.5 106.5t31.5 70.5q24 37 65.5 60.5t83.5 23.5q36 0 69.5 -14.5t100.5 -59.5q73 -49 108 -49q28 0 42.5 20 t21.5 68h120q-11 -253 -189 -253q-40 0 -79.5 16.5t-90.5 55.5q-41 31 -63.5 42.5t-46.5 11.5q-59 0 -66 -99h-120z" />
<glyph unicode="&#xf2;" d="M91 359v467q0 153 102 255.5t255 102.5q150 0 248 -101.5t98 -256.5v-467q0 -161 -100.5 -267t-253.5 -106q-151 0 -250 105.5t-99 267.5zM180 1669h223l190 -309h-180zM324 359q0 -63 32.5 -99.5t86.5 -36.5q32 0 59.5 14.5t43.5 39.5q9 15 11.5 29.5t2.5 52.5v467 q0 59 -32 94.5t-85 35.5q-52 0 -85.5 -37t-33.5 -93v-467z" />
<glyph unicode="&#xf3;" d="M91 359v467q0 153 102 255.5t255 102.5q150 0 248 -101.5t98 -256.5v-467q0 -161 -100.5 -267t-253.5 -106q-151 0 -250 105.5t-99 267.5zM324 359q0 -63 32.5 -99.5t86.5 -36.5q32 0 59.5 14.5t43.5 39.5q9 15 11.5 29.5t2.5 52.5v467q0 59 -32 94.5t-85 35.5 q-52 0 -85.5 -37t-33.5 -93v-467zM349 1360l190 309h221l-232 -309h-179z" />
<glyph unicode="&#xf4;" d="M91 359v467q0 153 102 255.5t255 102.5q150 0 248 -101.5t98 -256.5v-467q0 -161 -100.5 -267t-253.5 -106q-151 0 -250 105.5t-99 267.5zM108 1360l236 301h197l235 -301h-218l-115 174l-117 -174h-218zM324 359q0 -63 32.5 -99.5t86.5 -36.5q32 0 59.5 14.5t43.5 39.5 q9 15 11.5 29.5t2.5 52.5v467q0 59 -32 94.5t-85 35.5q-52 0 -85.5 -37t-33.5 -93v-467z" />
<glyph unicode="&#xf5;" d="M91 359v467q0 153 102 255.5t255 102.5q150 0 248 -101.5t98 -256.5v-467q0 -161 -100.5 -267t-253.5 -106q-151 0 -250 105.5t-99 267.5zM127 1381q4 70 13 106.5t32 70.5q24 36 66.5 60t83.5 24q36 0 69.5 -14.5t102.5 -59.5q70 -49 108 -49q27 0 40.5 20t21.5 68h120 q-11 -253 -189 -253q-40 0 -79 16.5t-89 55.5q-43 31 -66 42.5t-47 11.5q-58 0 -66 -99h-121zM324 359q0 -63 32.5 -99.5t86.5 -36.5q32 0 59.5 14.5t43.5 39.5q9 15 11.5 29.5t2.5 52.5v467q0 59 -32 94.5t-85 35.5q-52 0 -85.5 -37t-33.5 -93v-467z" />
<glyph unicode="&#xf6;" d="M91 359v467q0 153 102 255.5t255 102.5q150 0 248 -101.5t98 -256.5v-467q0 -161 -100.5 -267t-253.5 -106q-151 0 -250 105.5t-99 267.5zM131 1360v225h230v-225h-230zM324 359q0 -63 32.5 -99.5t86.5 -36.5q32 0 59.5 14.5t43.5 39.5q9 15 11.5 29.5t2.5 52.5v467 q0 59 -32 94.5t-85 35.5q-52 0 -85.5 -37t-33.5 -93v-467zM521 1360v225h231v-225h-231z" />
<glyph unicode="&#xf7;" horiz-adv-x="910" d="M49 528v234h814v-234h-814zM340 182v233h232v-233h-232zM340 870v234h232v-234h-232z" />
<glyph unicode="&#xf8;" horiz-adv-x="910" d="M91 -5l76 169q-26 46 -36.5 89t-10.5 106v467q0 153 102 255.5t254 102.5q73 0 134 -26l37 83l162 -76l-54 -121q36 -51 51 -100t15 -118v-467q0 -160 -100.5 -266.5t-251.5 -106.5q-87 0 -167 44l-49 -109zM354 587l160 359q-22 10 -42 10q-54 0 -86 -35.5t-32 -94.5 v-239zM398 246q36 -25 74 -25q30 0 58 15t42 39q9 14 12 29.5t3 54.5v309z" />
<glyph unicode="&#xf9;" horiz-adv-x="889" d="M91 290v880h233v-792q0 -46 3 -63.5t13 -34.5q12 -28 39.5 -43.5t60.5 -15.5q32 0 59.5 15.5t41.5 43.5q11 15 14 35.5t3 62.5v792h233v-1170h-233v118q-44 -70 -95 -101t-121 -31q-68 0 -128.5 35t-93.5 94q-18 35 -23.5 67.5t-5.5 107.5zM160 1669h223l189 -309h-178z " />
<glyph unicode="&#xfa;" horiz-adv-x="889" d="M91 290v880h233v-792q0 -46 3 -63.5t13 -34.5q12 -28 39.5 -43.5t60.5 -15.5q32 0 59.5 15.5t41.5 43.5q11 15 14 35.5t3 62.5v792h233v-1170h-233v118q-44 -70 -95 -101t-121 -31q-68 0 -128.5 35t-93.5 94q-18 35 -23.5 67.5t-5.5 107.5zM356 1360l190 309h223 l-230 -309h-183z" />
<glyph unicode="&#xfb;" horiz-adv-x="889" d="M91 290v880h233v-792q0 -46 3 -63.5t13 -34.5q12 -28 39.5 -43.5t60.5 -15.5q32 0 59.5 15.5t41.5 43.5q11 15 14 35.5t3 62.5v792h233v-1170h-233v118q-44 -70 -95 -101t-121 -31q-68 0 -128.5 35t-93.5 94q-18 35 -23.5 67.5t-5.5 107.5zM108 1360l236 301h197 l235 -301h-218l-115 174l-117 -174h-218z" />
<glyph unicode="&#xfc;" horiz-adv-x="889" d="M91 290v880h233v-792q0 -46 3 -63.5t13 -34.5q12 -28 39.5 -43.5t60.5 -15.5q32 0 59.5 15.5t41.5 43.5q11 15 14 35.5t3 62.5v792h233v-1170h-233v118q-44 -70 -95 -101t-121 -31q-68 0 -128.5 35t-93.5 94q-18 35 -23.5 67.5t-5.5 107.5zM131 1360v225h230v-225h-230z M521 1360v225h231v-225h-231z" />
<glyph unicode="&#xfd;" horiz-adv-x="842" d="M0 1170h248l162 -727l162 727h246l-337 -1367q-35 -137 -117 -203.5t-219 -66.5h-54v221h49q65 0 93.5 28t49.5 108l41 157zM319 1360l190 309h223l-230 -309h-183z" />
<glyph unicode="&#xfe;" horiz-adv-x="891" d="M98 -467v2106h237v-584q82 129 221 129q105 0 175.5 -74t70.5 -186v-673q0 -50 -8.5 -83t-29.5 -65q-33 -54 -89 -85.5t-119 -31.5q-71 0 -127.5 33t-93.5 96v-582h-237zM335 364q0 -146 117 -146q44 0 81 33q22 20 28.5 40.5t6.5 72.5v457q0 59 -32.5 95t-85.5 36 q-52 0 -83.5 -36t-31.5 -95v-457z" />
<glyph unicode="&#xff;" horiz-adv-x="842" d="M0 1170h248l162 -727l162 727h246l-337 -1367q-35 -137 -117 -203.5t-219 -66.5h-54v221h49q65 0 93.5 28t49.5 108l41 157zM108 1360v225h232v-225h-232zM499 1360v225h231v-225h-231z" />
<glyph unicode="&#x152;" horiz-adv-x="1351" d="M91 413v846q0 111 50 201.5t137.5 142t195.5 51.5q71 0 145 -29v14h701v-216h-464v-485h405v-220h-405v-482h464v-236h-701v14q-74 -28 -145 -28q-98 0 -188.5 50.5t-140.5 132.5q-31 51 -42.5 103.5t-11.5 140.5zM326 413q0 -76 6 -99.5t34 -50.5q44 -45 106 -45 q49 0 92.5 32t52.5 76q2 12 2 77v858q0 72 -39 114.5t-106 42.5t-107.5 -43.5t-40.5 -115.5v-846z" />
<glyph unicode="&#x153;" horiz-adv-x="1348" d="M91 359v467q0 153 101.5 255.5t252.5 102.5q67 0 122.5 -21t110.5 -67q104 88 234 88q149 0 249 -102.5t100 -255.5v-324h-467v-122q0 -64 4.5 -81t27.5 -41q31 -35 84 -35q49 0 79.5 30.5t37.5 86.5h234q1 -96 -46 -177.5t-127.5 -129t-175.5 -47.5q-136 0 -236 93 q-105 -93 -236 -93q-150 0 -249.5 106t-99.5 267zM324 359q0 -61 33 -98.5t86 -37.5q30 0 58 15t43 39q9 15 11.5 30t2.5 52v467q0 59 -32 94.5t-86 35.5q-51 0 -83.5 -36.5t-32.5 -93.5v-467zM794 694h233v115q0 68 -30 106.5t-85 38.5q-32 0 -60.5 -16.5t-42.5 -43.5 q-9 -14 -12 -31.5t-3 -53.5v-115z" />
<glyph unicode="&#x178;" horiz-adv-x="874" d="M0 1639h246l192 -642l191 642h248l-324 -933v-706h-236v706zM131 1759v234h230v-234h-230zM514 1759v234h231v-234h-231z" />
<glyph unicode="&#x2c6;" horiz-adv-x="832" d="M82 1360l235 301h197l236 -301h-220l-115 174l-115 -174h-218z" />
<glyph unicode="&#x2dc;" horiz-adv-x="820" d="M82 1381q3 71 12 107.5t31 69.5q26 37 68 60.5t84 23.5q35 0 68.5 -14.5t102.5 -59.5q69 -49 108 -49q26 0 40 20t21 68h120q-11 -253 -186 -253q-42 0 -81.5 16.5t-89.5 55.5q-42 31 -65 42.5t-45 11.5q-61 0 -68 -99h-120z" />
<glyph unicode="&#x2000;" horiz-adv-x="1059" />
<glyph unicode="&#x2001;" horiz-adv-x="2118" />
<glyph unicode="&#x2002;" horiz-adv-x="1059" />
<glyph unicode="&#x2003;" horiz-adv-x="2118" />
<glyph unicode="&#x2004;" horiz-adv-x="706" />
<glyph unicode="&#x2005;" horiz-adv-x="529" />
<glyph unicode="&#x2006;" horiz-adv-x="353" />
<glyph unicode="&#x2007;" horiz-adv-x="353" />
<glyph unicode="&#x2008;" horiz-adv-x="264" />
<glyph unicode="&#x2009;" horiz-adv-x="423" />
<glyph unicode="&#x200a;" horiz-adv-x="117" />
<glyph unicode="&#x2010;" horiz-adv-x="734" d="M17 528v234h701v-234h-701z" />
<glyph unicode="&#x2011;" horiz-adv-x="734" d="M17 528v234h701v-234h-701z" />
<glyph unicode="&#x2012;" horiz-adv-x="734" d="M17 528v234h701v-234h-701z" />
<glyph unicode="&#x2013;" horiz-adv-x="1036" d="M0 528v234h1037v-234h-1037z" />
<glyph unicode="&#x2014;" horiz-adv-x="1635" d="M0 528v234h1637v-234h-1637z" />
<glyph unicode="&#x2018;" horiz-adv-x="331" d="M49 1231v234l234 174v-408h-234z" />
<glyph unicode="&#x2019;" horiz-adv-x="331" d="M49 1231v408h234v-234z" />
<glyph unicode="&#x201a;" horiz-adv-x="331" d="M49 -174v408h234v-234z" />
<glyph unicode="&#x201c;" horiz-adv-x="565" d="M49 1320v230l174 89v-319h-174zM342 1320v230l174 89v-319h-174z" />
<glyph unicode="&#x201d;" horiz-adv-x="565" d="M49 1322v317h174v-228zM342 1322v317h174v-228z" />
<glyph unicode="&#x201e;" horiz-adv-x="565" d="M49 -89v317h174v-228zM342 -89v317h174v-228z" />
<glyph unicode="&#x2022;" horiz-adv-x="938" d="M131 830q0 95 45.5 173.5t125 123.5t174.5 45q90 0 167.5 -46t122.5 -124t45 -169q0 -93 -45.5 -171.5t-123.5 -124t-170.5 -45.5t-171 45t-124 123t-45.5 170z" />
<glyph unicode="&#x2026;" horiz-adv-x="1267" d="M49 0v234h234v-234h-234zM516 0v234h234v-234h-234zM985 0v234h234v-234h-234z" />
<glyph unicode="&#x202f;" horiz-adv-x="423" />
<glyph unicode="&#x2039;" horiz-adv-x="547" d="M0 708l467 467v-232l-233 -235l233 -234v-235z" />
<glyph unicode="&#x203a;" horiz-adv-x="547" d="M82 239v235l232 234l-232 235v232l466 -467z" />
<glyph unicode="&#x205f;" horiz-adv-x="529" />
<glyph unicode="&#x20ac;" d="M35 600l47 176h98v82h-145l47 176h98v222q0 179 100 288.5t264 109.5q91 0 153 -29t129 -103l-76 -308q-49 129 -89.5 174t-104.5 45q-67 0 -104 -46t-37 -131v-222h288l-47 -176h-241v-82h219l-47 -176h-172v-187q0 -70 3 -91t14 -45q21 -35 57.5 -55t80.5 -20 q57 0 95.5 33t84.5 121v-312q-59 -35 -98.5 -46.5t-95.5 -11.5q-95 0 -182.5 38t-127.5 98q-35 52 -50.5 119.5t-15.5 171.5v187h-145z" />
<glyph unicode="&#x2122;" horiz-adv-x="1360" d="M49 1508v131h472v-131h-167v-852h-140v852h-165zM600 656v983h130l187 -523l185 523h129v-983h-140v597l-142 -420h-69l-141 420v-597h-139z" />
<glyph unicode="&#x25fc;" horiz-adv-x="1166" d="M0 0v1168h1168v-1168h-1168z" />
</font>
</defs>
</svg>
