<?xml version="1.0" encoding="utf-8"?>
<!-- Generator: Adobe Illustrator 16.0.0, SVG Export Plug-In . SVG Version: 6.00 Build 0)  -->
<!DOCTYPE svg PUBLIC "-//W3C//DTD SVG 1.1//EN" "http://www.w3.org/Graphics/SVG/1.1/DTD/svg11.dtd">
<svg version="1.1" id="Layer_1" xmlns="http://www.w3.org/2000/svg" xmlns:xlink="http://www.w3.org/1999/xlink" x="0px" y="0px"
	 width="512px" height="170px" viewBox="50 262 512 170" style="enable-background:new 50 262 512 170;" xml:space="preserve">
<style type="text/css">
<![CDATA[
	.st0{fill:#FFFFFF;}
]]>
</style>
<g>
	<polygon class="st0" points="119.521,367.957 105.842,322.185 119.521,294.037 133.2,322.185 	"/>
	<polygon class="st0" points="115.244,367.957 91.275,337.968 78.123,352.963 91.275,366.643 89.697,351.91 	"/>
	<polygon class="st0" points="123.798,367.957 147.766,337.968 160.919,352.963 147.766,366.643 149.344,351.91 	"/>
	<polygon class="st0" points="119.521,399.963 114.26,386.799 107.683,386.799 119.521,375.225 131.622,386.799 124.781,387.062 	
		"/>
	<polygon class="st0" points="116.169,371.873 108.54,379.331 91.779,379.331 99.409,371.873 	"/>
	<polygon class="st0" points="122.873,371.873 130.501,379.331 147.263,379.331 139.634,371.873 	"/>
	<path class="st0" d="M202.838,363.705v6.913h-20.521V322.59h6.84v41.115H202.838z"/>
	<path class="st0" d="M210.18,370.618h-7.272l10.729-48.028h5.977l10.729,48.028h-7.345l-1.944-10.297h-8.929L210.18,370.618z
		 M216.588,336.415l-3.24,17.497h6.48L216.588,336.415z"/>
	<path class="st0" d="M241.068,370.618h-6.913V322.59h12.025c6.336,0,11.161,4.896,11.161,11.305v4.465
		c0,4.752-1.656,7.776-5.617,10.225l7.345,22.034h-7.345l-6.408-20.594h-4.249V370.618z M245.82,343.976
		c1.944,0,2.952-0.432,3.96-1.584c0.936-1.08,1.152-1.8,1.152-4.032v-4.465c0-2.952-2.016-4.968-5.041-4.968h-4.824v15.049H245.82z"
		/>
	<path class="st0" d="M266.771,370.618h-7.272l10.729-48.028h5.977l10.729,48.028h-7.345l-1.944-10.297h-8.929L266.771,370.618z
		 M273.18,336.415l-3.24,17.497h6.48L273.18,336.415z"/>
	<path class="st0" d="M302.628,370.618h-5.904l-9.793-48.028h7.2l5.545,33.339l5.688-33.339h7.272L302.628,370.618z"/>
	<path class="st0" d="M323.363,363.705h13.609v6.913h-20.521V322.59h20.521v6.337h-13.609v14.185h11.953v6.48h-11.953V363.705z"/>
	<path class="st0" d="M362.315,363.705v6.913h-20.521V322.59h6.841v41.115H362.315z"/>
	<path class="st0" d="M398.386,368.458c-2.088,1.656-4.608,2.592-7.272,2.592c-3.24,0-6.696-1.584-8.929-4.104
		c-2.16-2.448-2.736-4.32-2.736-8.568v-23.906c0-7.057,4.969-12.312,11.665-12.312c6.265,0,11.521,5.184,11.521,11.377v24.842
		c0,2.88-0.145,3.816-0.721,5.112l4.537,3.816l-3.816,4.537L398.386,368.458z M389.745,361.186l3.816-4.608l2.16,1.8v-23.906
		c0-3.312-1.872-5.473-4.681-5.473c-1.224,0-2.376,0.504-3.24,1.368c-1.08,1.08-1.439,2.017-1.439,4.104v23.906
		c0,2.592,0.216,3.312,1.368,4.393c0.863,0.936,2.16,1.439,3.384,1.439c0.648,0,1.008-0.071,1.729-0.432L389.745,361.186z"/>
	<path class="st0" d="M430.931,359.312c0,2.736-0.433,4.321-1.584,6.265c-2.089,3.457-5.688,5.473-9.577,5.473
		c-4.032,0-7.849-2.232-9.793-5.688c-0.936-1.8-1.368-3.601-1.368-6.049V322.59h6.841v36.723c0,1.873,0.36,2.809,1.44,3.745
		c0.792,0.72,1.8,1.08,2.88,1.08c2.664,0,4.32-1.944,4.32-4.825V322.59h6.841V359.312z"/>
	<path class="st0" d="M444.249,363.705h13.609v6.913h-20.521V322.59h20.521v6.337h-13.609v14.185h11.953v6.48h-11.953V363.705z"/>
	<path class="st0" d="M462.68,322.59h11.232c2.665,0,5.833,1.368,7.85,3.384c2.088,2.089,3.096,4.608,3.096,7.849v3.745
		c0,3.384-1.729,6.192-4.824,7.776c3.384,2.017,4.824,4.393,4.824,8.064v5.545c0,6.769-4.824,11.665-11.593,11.665H462.68V322.59z
		 M473.553,342.319c3.096,0,4.896-2.016,4.896-5.473v-3.024c0-2.88-2.089-4.824-5.112-4.824h-3.889v13.321H473.553z
		 M473.408,363.777c2.952,0,5.041-2.017,5.041-4.824v-5.545c0-3.096-1.944-5.04-5.185-5.04h-3.816v15.409H473.408z"/>
	<path class="st0" d="M497.527,363.705h13.609v6.913h-20.521V322.59h20.521v6.337h-13.609v14.185h11.953v6.48h-11.953V363.705z"/>
	<path class="st0" d="M537.056,356.937v1.656c0,3.456-0.36,5.041-1.512,6.984c-1.944,3.312-5.761,5.473-9.577,5.473
		c-3.744,0-7.633-2.232-9.577-5.4c-1.224-2.016-1.584-3.744-1.584-7.057v-24.771c0-3.815,1.152-6.552,3.816-8.856
		c2.017-1.8,4.681-2.808,7.345-2.808c6.265,0,11.089,5.04,11.089,11.664v2.521h-6.841v-2.521c0-2.952-1.584-4.752-4.248-4.752
		c-2.592,0-4.248,1.872-4.248,4.752v24.771c0,2.88,0.071,3.24,1.151,4.32c0.792,0.792,1.944,1.296,3.024,1.296
		c1.513,0,3.024-0.863,3.816-2.088c0.433-0.792,0.504-1.08,0.504-3.528v-1.656H537.056z"/>
</g>
</svg>
